<svg width="82" height="65" viewBox="0 0 82 65" fill="none" xmlns="http://www.w3.org/2000/svg">
<path d="M36.6074 27.1185C33.1333 27.1185 30.1157 24.5869 29.6593 21.1112C29.402 19.4449 28.0376 13.7738 21.8179 13.7738C15.5982 13.7738 14.2314 19.4449 13.9643 21.1827C13.3865 24.9134 9.85668 27.538 6.04521 27.0065C2.2386 26.482 -0.434285 23.0898 0.0585359 19.3472C0.939786 12.6558 6.62057 0 21.8155 0C37.0104 0 42.6912 12.6558 43.5724 19.3472C44.0676 23.1208 41.3559 26.5726 37.5129 27.0613C37.2094 27.0994 36.906 27.1185 36.6049 27.1185H36.6074Z" fill="url(#paint0_linear_112_284)"/>
<path d="M36.6168 64.9976H7.01601C4.34556 64.9976 1.90573 63.5077 0.725876 61.1573C-0.456408 58.8068 -0.174796 55.9986 1.45175 53.9175L31.0501 16.036C33.4098 13.0181 37.8137 12.4531 40.8847 14.7631C43.9581 17.0802 44.5383 21.4021 42.1811 24.42L21.2398 51.2214H36.6168C40.4914 51.2214 43.6304 54.3037 43.6304 58.1083C43.6304 61.9129 40.4914 64.9952 36.6168 64.9952V64.9976Z" fill="url(#paint1_linear_112_284)"/>
<path d="M36.612 65C35.5778 65 34.529 64.7735 33.5385 64.2991C30.0572 62.6305 28.6152 58.5064 30.3146 55.088L55.7907 3.86418C57.223 0.98451 60.4883 -0.545911 63.6734 0.17639C66.8537 0.898692 69.1066 3.68063 69.1066 6.88688V47.6266C69.1066 51.4312 65.9676 54.5135 62.093 54.5135C58.2184 54.5135 55.0794 51.4312 55.0794 47.6266V36.6848L42.9191 61.131C41.7028 63.5745 39.2072 65 36.612 65Z" fill="url(#paint2_linear_112_284)"/>
<path d="M74.9864 54.5135H62.0929C58.2183 54.5135 55.0793 51.4312 55.0793 47.6266C55.0793 43.822 58.2183 40.7397 62.0929 40.7397H74.9864C78.861 40.7397 82 43.822 82 47.6266C82 51.4312 78.861 54.5135 74.9864 54.5135Z" fill="url(#paint3_linear_112_284)"/>
<defs>
<linearGradient id="paint0_linear_112_284" x1="0.000271398" y1="13.5592" x2="43.6307" y2="13.5592" gradientUnits="userSpaceOnUse">
<stop stop-color="#0422FF"/>
<stop offset="1" stop-color="#2AD8FF"/>
</linearGradient>
<linearGradient id="paint1_linear_112_284" x1="-2.52158e-06" y1="39.1712" x2="43.6304" y2="39.1712" gradientUnits="userSpaceOnUse">
<stop stop-color="#0422FF"/>
<stop offset="1" stop-color="#2AD8FF"/>
</linearGradient>
<linearGradient id="paint2_linear_112_284" x1="29.6008" y1="32.4988" x2="69.1066" y2="32.4988" gradientUnits="userSpaceOnUse">
<stop stop-color="#0422FF"/>
<stop offset="1" stop-color="#2AD8FF"/>
</linearGradient>
<linearGradient id="paint3_linear_112_284" x1="55.0793" y1="47.6266" x2="82" y2="47.6266" gradientUnits="userSpaceOnUse">
<stop stop-color="#0422FF"/>
<stop offset="1" stop-color="#2AD8FF"/>
</linearGradient>
</defs>
</svg>
