<svg width="135" height="101" viewBox="0 0 135 101" fill="none" xmlns="http://www.w3.org/2000/svg">
<g clip-path="url(#clip0_191_7405)">
<path d="M135 97.005V3.99503C135 1.78858 133.24 0 131.069 0H98.3063C97.5204 0 96.7527 0.239302 96.1021 0.687146L85.6086 7.90857H3.93115C1.75998 7.90857 0 9.69714 0 11.9036V97.005C0 99.2114 1.75998 101 3.93115 101H131.069C133.24 101 135 99.2114 135 97.005Z" fill="url(#paint0_linear_191_7405)"/>
<path d="M131.069 11.9036H3.93115C1.76004 11.9036 0 13.6922 0 15.8986V97.0049C0 99.2113 1.76004 101 3.93115 101H131.069C133.24 101 135 99.2113 135 97.0049V15.8986C135 13.6922 133.24 11.9036 131.069 11.9036Z" fill="#007FF6"/>
</g>
<defs>
<linearGradient id="paint0_linear_191_7405" x1="0" y1="50.5" x2="135" y2="50.5" gradientUnits="userSpaceOnUse">
<stop stop-color="#7FAEFF"/>
<stop offset="1" stop-color="#BFE6FF"/>
</linearGradient>
<clipPath id="clip0_191_7405">
<rect width="135" height="101" fill="white"/>
</clipPath>
</defs>
</svg>
